<?xml version="1.0" encoding="UTF-8" standalone="no"?>
<!-- Created with Inkscape (http://www.inkscape.org/) -->

<svg
   xmlns:dc="http://purl.org/dc/elements/1.1/"
   xmlns:cc="http://creativecommons.org/ns#"
   xmlns:rdf="http://www.w3.org/1999/02/22-rdf-syntax-ns#"
   xmlns:svg="http://www.w3.org/2000/svg"
   xmlns="http://www.w3.org/2000/svg"
   xmlns:xlink="http://www.w3.org/1999/xlink"
   xmlns:sodipodi="http://sodipodi.sourceforge.net/DTD/sodipodi-0.dtd"
   xmlns:inkscape="http://www.inkscape.org/namespaces/inkscape"
   width="1000"
   height="1000"
   viewBox="0 0 1000 1000"
   id="svg3336"
   version="1.1"
   inkscape:version="0.91 r13725"
   sodipodi:docname="Logo.svg"
   inkscape:export-filename="C:\Users\dodhekar\Desktop\Logo.png"
   inkscape:export-xdpi="12.35"
   inkscape:export-ydpi="12.35">
  <defs
     id="defs3338">
    <linearGradient
       inkscape:collect="always"
       id="linearGradient4392">
      <stop
         style="stop-color:#2cb53f;stop-opacity:1"
         offset="0"
         id="stop4394" />
      <stop
         style="stop-color:#61d26a;stop-opacity:1"
         offset="1"
         id="stop4396" />
    </linearGradient>
    <linearGradient
       inkscape:collect="always"
       xlink:href="#linearGradient4392"
       id="linearGradient4398"
       x1="0"
       y1="1052.3622"
       x2="1000"
       y2="52.362144"
       gradientUnits="userSpaceOnUse" />
  </defs>
  <sodipodi:namedview
     id="base"
     pagecolor="#ffffff"
     bordercolor="#666666"
     borderopacity="1.0"
     inkscape:pageopacity="0.0"
     inkscape:pageshadow="2"
     inkscape:zoom="0.40290311"
     inkscape:cx="372.04724"
     inkscape:cy="526.18116"
     inkscape:document-units="px"
     inkscape:current-layer="layer2"
     showgrid="true"
     inkscape:window-width="1600"
     inkscape:window-height="1137"
     inkscape:window-x="-8"
     inkscape:window-y="-8"
     inkscape:window-maximized="1"
     inkscape:snap-intersection-paths="true"
     inkscape:object-nodes="true"
     inkscape:snap-smooth-nodes="true"
     units="px"
     fit-margin-top="0"
     fit-margin-left="0"
     fit-margin-right="0"
     fit-margin-bottom="0">
    <inkscape:grid
       type="xygrid"
       id="grid3344"
       originx="0"
       originy="6.2378219e-005" />
  </sodipodi:namedview>
  <metadata
     id="metadata3341">
    <rdf:RDF>
      <cc:Work
         rdf:about="">
        <dc:format>image/svg+xml</dc:format>
        <dc:type
           rdf:resource="http://purl.org/dc/dcmitype/StillImage" />
        <dc:title />
      </cc:Work>
    </rdf:RDF>
  </metadata>
  <g
     inkscape:label="Background"
     inkscape:groupmode="layer"
     id="layer1"
     transform="translate(0,-52.362206)"
     style="display:none">
    <rect
       style="fill:url(#linearGradient4398)"
       id="rect3346"
       width="1000"
       height="1000"
       x="0"
       y="52.362206" />
  </g>
  <g
     inkscape:groupmode="layer"
     id="layer2"
     inkscape:label="White-Transparent"
     transform="translate(0,-52.362206)"
     style="display:inline">
    <g
       id="g4349"
       transform="matrix(0,1,-1,0,1067.2603,67.153476)"
       style="fill:#ffffff">
      <g
         id="g4346"
         style="fill:#ffffff">
        <path
           style="fill:#ffffff"
           d="m 745.30319,317.72461 a 350,350 0 0 0 -494.9559,4.31942 350,350 0 0 0 -42.64559,437.50786 L 156.53942,916.85496 313.21068,862.85739 A 350,350 0 0 0 749.6226,812.68052 350,350 0 0 0 745.30319,317.72461 Z m -52.5682,53.49379 c 108.32727,106.45291 109.84674,280.56664 3.39382,388.89392 -96.56262,98.0418 -250.72833,109.6153 -360.8465,27.0894 l -94.6338,44.06322 42.4103,-95.40501 C 198.632,627.20313 207.51063,472.87021 303.84107,374.61222 410.29398,266.28495 584.40771,264.76548 692.73499,371.2184 Z"
           id="path3351"
           inkscape:connector-curvature="0" />
      </g>
      <path
         inkscape:connector-curvature="0"
         id="path3491"
         d="m 370,432.3622 a 175.73595,175.73595 0 0 0 0,248.52814 L 618.52814,432.3622 a 175.73595,175.73595 0 0 0 -248.52814,0 z"
         style="fill:#ffffff" />
    </g>
  </g>
  <g
     transform="translate(0,-52.362206)"
     inkscape:label="Colored"
     id="g4382"
     inkscape:groupmode="layer"
     style="display:none">
    <path
       inkscape:connector-curvature="0"
       id="path4388"
       d="M 749.53569,812.45667 A 350,350 0 0 0 745.21627,317.50077 350,350 0 0 0 307.70841,274.85518 L 150.40534,223.6929 204.40291,380.36416 a 350,350 0 0 0 50.17687,436.41192 350,350 0 0 0 494.95591,-4.31941 z m -53.49379,-52.5682 c -106.45291,108.32727 -280.56664,109.84674 -388.89392,3.39382 -98.0418,-96.56262 -109.6153,-250.72833 -27.0894,-360.8465 l -44.06322,-94.6338 95.40501,42.4103 c 108.6568,-84.42681 262.98972,-75.54818 361.24771,20.78226 108.32727,106.45291 109.84674,280.56664 3.39382,388.89392 z"
       style="fill:#ffffff" />
    <path
       inkscape:connector-curvature="0"
       id="path4390"
       d="m 634.8981,437.15348 a 175.73595,175.73595 0 0 0 -248.52814,0 L 634.8981,685.68162 a 175.73595,175.73595 0 0 0 0,-248.52814 z"
       style="fill:#ffffff" />
  </g>
</svg>
