<?xml version="1.0" encoding="UTF-8" standalone="no"?>
<!-- Created with Inkscape (http://www.inkscape.org/) -->

<svg
   xmlns:dc="http://purl.org/dc/elements/1.1/"
   xmlns:cc="http://creativecommons.org/ns#"
   xmlns:rdf="http://www.w3.org/1999/02/22-rdf-syntax-ns#"
   xmlns:svg="http://www.w3.org/2000/svg"
   xmlns="http://www.w3.org/2000/svg"
   xmlns:xlink="http://www.w3.org/1999/xlink"
   xmlns:sodipodi="http://sodipodi.sourceforge.net/DTD/sodipodi-0.dtd"
   xmlns:inkscape="http://www.inkscape.org/namespaces/inkscape"
   width="2480"
   height="1200"
   viewBox="0 0 2480 1200"
   id="svg4969"
   version="1.1"
   inkscape:version="0.91 r13725"
   inkscape:export-filename="C:\Users\dodhekar\Desktop\Splash.png"
   inkscape:export-xdpi="33.75"
   inkscape:export-ydpi="33.75"
   sodipodi:docname="Splash.svg">
  <defs
     id="defs4971">
    <linearGradient
       inkscape:collect="always"
       xlink:href="#linearGradient4392"
       id="linearGradient4398"
       x1="0"
       y1="1052.3622"
       x2="1000"
       y2="52.362144"
       gradientUnits="userSpaceOnUse"
       gradientTransform="matrix(0.75,0,0,0.75,277.69149,158.2996)" />
    <linearGradient
       inkscape:collect="always"
       id="linearGradient4392">
      <stop
         style="stop-color:#2cb53f;stop-opacity:1"
         offset="0"
         id="stop4394" />
      <stop
         style="stop-color:#61d26a;stop-opacity:1"
         offset="1"
         id="stop4396" />
    </linearGradient>
  </defs>
  <sodipodi:namedview
     id="base"
     pagecolor="#ffffff"
     bordercolor="#666666"
     borderopacity="1.0"
     inkscape:pageopacity="0.0"
     inkscape:pageshadow="2"
     inkscape:zoom="0.44516129"
     inkscape:cx="1240"
     inkscape:cy="600"
     inkscape:document-units="px"
     inkscape:current-layer="layer3"
     showgrid="false"
     units="px"
     inkscape:window-width="732"
     inkscape:window-height="405"
     inkscape:window-x="789"
     inkscape:window-y="341"
     inkscape:window-maximized="0" />
  <metadata
     id="metadata4974">
    <rdf:RDF>
      <cc:Work
         rdf:about="">
        <dc:format>image/svg+xml</dc:format>
        <dc:type
           rdf:resource="http://purl.org/dc/dcmitype/StillImage" />
        <dc:title></dc:title>
      </cc:Work>
    </rdf:RDF>
  </metadata>
  <g
     inkscape:groupmode="layer"
     id="layer3"
     inkscape:label="Layer 2">
    <path
       style="display:inline;fill:url(#linearGradient4398)"
       d="M 646.44922 321.33203 A 262.5 262.5 0 0 0 508.47266 364.43945 L 390.49609 326.06836 L 430.99414 443.57227 A 262.5 262.5 0 0 0 468.62695 770.88086 A 262.5 262.5 0 0 0 839.84375 767.64062 A 262.5 262.5 0 0 0 836.60352 396.42578 A 262.5 262.5 0 0 0 646.44922 321.33203 z M 651.02148 377.58008 C 703.99688 377.14095 756.87663 397.03438 797.17773 436.54492 C 878.42313 516.3846 879.56236 646.96938 799.72266 728.21484 C 719.88296 809.46029 589.29813 810.60141 508.05273 730.76172 C 434.52133 658.33975 425.84193 542.71558 487.73633 460.12695 L 454.68945 389.15039 L 526.24219 420.95898 C 563.16849 392.26704 607.12758 377.94393 651.02148 377.58008 z M 658.74219 447.57422 A 131.80196 131.80196 0 0 0 567.46875 486.16406 L 753.86523 672.56055 A 131.80196 131.80196 0 0 0 753.86523 486.16406 A 131.80196 131.80196 0 0 0 658.74219 447.57422 z M 1169.0781 497.2207 L 1169.0781 633.97852 L 1185.6016 633.97852 L 1185.6016 560.67773 C 1190.1133 557.2207 1194.8301 554.37891 1199.752 552.15234 C 1204.6738 549.92578 1209.3906 548.8125 1213.9023 548.8125 C 1218.2969 548.8125 1221.8711 549.42773 1224.625 550.6582 C 1227.3789 551.83008 1229.4883 553.64648 1230.9531 556.10742 C 1232.3594 558.33398 1233.3262 561.43945 1233.8535 565.42383 C 1234.3809 569.34961 1234.6445 573.56836 1234.6445 578.08008 L 1234.6445 633.97852 L 1251.168 633.97852 L 1251.168 570.25781 C 1251.168 558.24609 1248.3848 549.04688 1242.8184 542.66016 C 1237.252 536.27344 1229.166 533.08008 1218.5605 533.08008 C 1212.7598 533.08008 1207.1055 534.28125 1201.5977 536.68359 C 1196.0898 539.08594 1190.7578 542.42578 1185.6016 546.70312 L 1185.6016 497.2207 L 1169.0781 497.2207 z M 983.01367 503.10938 L 1017.6426 633.97852 L 1036.8027 633.97852 L 1063.6973 525.3457 L 1091.207 633.97852 L 1110.8066 633.97852 L 1144.8203 503.10938 L 1127.7695 503.10938 L 1100.4355 612.97266 L 1073.1016 503.10938 L 1055.4355 503.10938 L 1028.3652 611.91797 L 1000.8555 503.10938 L 983.01367 503.10938 z M 1547.9746 503.10938 L 1582.6035 633.97852 L 1601.7637 633.97852 L 1628.6582 525.3457 L 1656.168 633.97852 L 1675.7676 633.97852 L 1709.7812 503.10938 L 1692.7305 503.10938 L 1665.3965 612.97266 L 1638.0625 503.10938 L 1620.3965 503.10938 L 1593.3262 611.91797 L 1565.8164 503.10938 L 1547.9746 503.10938 z M 1391.6172 507.5918 L 1391.6172 535.80469 L 1380.4551 535.80469 L 1380.4551 549.69141 L 1391.6172 549.69141 L 1391.6172 601.89844 C 1391.6172 613.79297 1394.2246 622.43555 1399.4395 627.82617 C 1404.6543 633.2168 1412.2715 635.91211 1422.291 635.91211 C 1425.1621 635.91211 1428.4141 635.64844 1432.0469 635.12109 C 1435.7383 634.59375 1439.1367 633.91992 1442.2422 633.09961 L 1442.2422 618.24609 L 1441.3633 618.24609 C 1440.0742 618.77344 1437.9648 619.44727 1435.0352 620.26758 C 1432.1055 621.0293 1429.293 621.41016 1426.5977 621.41016 C 1421.9688 621.41016 1418.5117 620.88281 1416.2266 619.82812 C 1414 618.71484 1412.2422 616.98633 1410.9531 614.64258 C 1409.5469 612.12305 1408.7266 609.42773 1408.4922 606.55664 C 1408.2578 603.62695 1408.1406 599.58398 1408.1406 594.42773 L 1408.1406 549.69141 L 1442.2422 549.69141 L 1442.2422 535.80469 L 1408.1406 535.80469 L 1408.1406 507.5918 L 1391.6172 507.5918 z M 1959.7422 533.08008 C 1953.5312 533.08008 1947.6719 534.33984 1942.1641 536.85938 C 1936.7148 539.32031 1931.793 542.39648 1927.3984 546.08789 L 1927.3984 535.80469 L 1910.875 535.80469 L 1910.875 670.18945 L 1927.3984 670.18945 L 1927.3984 629.05664 C 1931.6758 631.40039 1935.8652 633.12891 1939.9668 634.24219 C 1944.127 635.35547 1948.7559 635.91211 1953.8535 635.91211 C 1959.7129 635.91211 1965.25 634.74023 1970.4648 632.39648 C 1975.7383 629.99414 1980.3086 626.625 1984.1758 622.28906 C 1988.3359 617.71875 1991.5586 612.15234 1993.8438 605.58984 C 1996.1289 598.96875 1997.2715 591.67383 1997.2715 583.70508 C 1997.2715 567.82617 1993.9609 555.43359 1987.3398 546.52734 C 1980.7773 537.5625 1971.5781 533.08008 1959.7422 533.08008 z M 2071.8906 533.08008 C 2065.6797 533.08008 2059.8203 534.33984 2054.3125 536.85938 C 2048.8633 539.32031 2043.9414 542.39648 2039.5469 546.08789 L 2039.5469 535.80469 L 2023.0234 535.80469 L 2023.0234 670.18945 L 2039.5469 670.18945 L 2039.5469 629.05664 C 2043.8242 631.40039 2048.0137 633.12891 2052.1152 634.24219 C 2056.2754 635.35547 2060.9043 635.91211 2066.002 635.91211 C 2071.8613 635.91211 2077.3984 634.74023 2082.6133 632.39648 C 2087.8867 629.99414 2092.457 626.625 2096.3242 622.28906 C 2100.4844 617.71875 2103.707 612.15234 2105.9922 605.58984 C 2108.2773 598.96875 2109.4199 591.67383 2109.4199 583.70508 C 2109.4199 567.82617 2106.1094 555.43359 2099.4883 546.52734 C 2092.9258 537.5625 2083.7266 533.08008 2071.8906 533.08008 z M 1316.5586 533.43164 C 1310.6406 533.43164 1304.6348 533.95898 1298.541 535.01367 C 1292.4473 536.06836 1287.7891 537.03516 1284.5664 537.91406 L 1284.5664 554.70117 L 1285.4453 554.70117 C 1291.1289 552.5332 1296.6367 550.89258 1301.9688 549.7793 C 1307.3008 548.60742 1312.1348 548.02148 1316.4707 548.02148 C 1320.0449 548.02148 1323.4727 548.25586 1326.7539 548.72461 C 1330.0352 549.19336 1332.8477 550.10156 1335.1914 551.44922 C 1337.6523 552.85547 1339.5273 554.78906 1340.8164 557.25 C 1342.1641 559.71094 1342.8379 562.81641 1342.8379 566.56641 L 1342.8379 569.11523 C 1333.2285 569.58398 1324.2344 570.28711 1315.8555 571.22461 C 1307.4766 572.16211 1300.2988 573.94922 1294.3223 576.58594 C 1288.4043 579.22266 1283.834 582.85547 1280.6113 587.48438 C 1277.4473 592.05469 1275.8652 598.06055 1275.8652 605.50195 C 1275.8652 614.58398 1278.9414 622.05469 1285.0938 627.91406 C 1291.2461 633.77344 1298.7461 636.70312 1307.5938 636.70312 C 1312.3984 636.70312 1316.5879 636.23438 1320.1621 635.29688 C 1323.7363 634.41797 1326.9004 633.30469 1329.6543 631.95703 C 1331.998 630.90234 1334.4004 629.49609 1336.8613 627.73828 C 1339.3809 625.92188 1341.373 624.51562 1342.8379 623.51953 L 1342.8379 633.97852 L 1359.2734 633.97852 L 1359.2734 567.35742 C 1359.2734 561.0293 1358.3066 555.72656 1356.373 551.44922 C 1354.4395 547.17188 1351.627 543.68555 1347.9355 540.99023 C 1344.1855 538.23633 1339.7324 536.30273 1334.5762 535.18945 C 1329.4785 534.01758 1323.4727 533.43164 1316.5586 533.43164 z M 1495.7676 533.43164 C 1489.498 533.43164 1483.8145 534.25195 1478.7168 535.89258 C 1473.6777 537.47461 1469.5176 539.64258 1466.2363 542.39648 C 1462.8379 545.20898 1460.2891 548.40234 1458.5898 551.97656 C 1456.9492 555.55078 1456.1289 559.35938 1456.1289 563.40234 C 1456.1289 569.84766 1457.916 575.29688 1461.4902 579.75 C 1465.123 584.14453 1471.2461 587.48438 1479.8594 589.76953 C 1482.9648 590.58984 1486.3926 591.35156 1490.1426 592.05469 C 1493.9512 592.75781 1497.0273 593.37305 1499.3711 593.90039 C 1505.6992 595.30664 1509.9766 597.00586 1512.2031 598.99805 C 1514.4297 600.99023 1515.543 603.91992 1515.543 607.78711 C 1515.543 612.82617 1513.4922 616.51758 1509.3906 618.86133 C 1505.2891 621.20508 1499.6055 622.37695 1492.3398 622.37695 C 1486.4805 622.37695 1480.3574 621.23438 1473.9707 618.94922 C 1467.584 616.60547 1461.7832 613.4707 1456.5684 609.54492 L 1455.6895 609.54492 L 1455.6895 628.08984 C 1459.791 630.14062 1464.8594 632.04492 1470.8945 633.80273 C 1476.9883 635.50195 1483.668 636.35156 1490.9336 636.35156 C 1503.7656 636.35156 1513.873 633.48047 1521.2559 627.73828 C 1528.6973 621.99609 1532.418 614.64258 1532.418 605.67773 C 1532.418 598.5293 1530.3379 592.78711 1526.1777 588.45117 C 1522.0176 584.17383 1516.0996 581.15625 1508.4238 579.39844 C 1505.9043 578.8125 1502.7402 578.16797 1498.9316 577.46484 C 1495.1816 576.76172 1491.7832 576.05859 1488.7363 575.35547 C 1483.2285 574.06641 1479.2441 572.39648 1476.7832 570.3457 C 1474.2637 568.29492 1473.0039 565.24805 1473.0039 561.20508 C 1473.0039 556.63477 1475.084 553.20703 1479.2441 550.92188 C 1483.4043 548.57812 1488.502 547.40625 1494.5371 547.40625 C 1500.3379 547.40625 1506.2559 548.49023 1512.291 550.6582 C 1518.3262 552.76758 1523.4531 555.375 1527.6719 558.48047 L 1528.5508 558.48047 L 1528.5508 540.81445 C 1524.5664 538.76367 1519.5566 537.03516 1513.5215 535.62891 C 1507.5449 534.16406 1501.627 533.43164 1495.7676 533.43164 z M 1836.168 533.43164 C 1830.25 533.43164 1824.2441 533.95898 1818.1504 535.01367 C 1812.0566 536.06836 1807.3984 537.03516 1804.1758 537.91406 L 1804.1758 554.70117 L 1805.0547 554.70117 C 1810.7383 552.5332 1816.2461 550.89258 1821.5781 549.7793 C 1826.9102 548.60742 1831.7441 548.02148 1836.0801 548.02148 C 1839.6543 548.02148 1843.082 548.25586 1846.3633 548.72461 C 1849.6445 549.19336 1852.457 550.10156 1854.8008 551.44922 C 1857.2617 552.85547 1859.1367 554.78906 1860.4258 557.25 C 1861.7734 559.71094 1862.4473 562.81641 1862.4473 566.56641 L 1862.4473 569.11523 C 1852.8379 569.58398 1843.8438 570.28711 1835.4648 571.22461 C 1827.0859 572.16211 1819.9082 573.94922 1813.9316 576.58594 C 1808.0137 579.22266 1803.4434 582.85547 1800.2207 587.48438 C 1797.0566 592.05469 1795.4746 598.06055 1795.4746 605.50195 C 1795.4746 614.58398 1798.5508 622.05469 1804.7031 627.91406 C 1810.8555 633.77344 1818.3555 636.70312 1827.2031 636.70312 C 1832.0078 636.70312 1836.1973 636.23438 1839.7715 635.29688 C 1843.3457 634.41797 1846.5098 633.30469 1849.2637 631.95703 C 1851.6074 630.90234 1854.0098 629.49609 1856.4707 627.73828 C 1858.9902 625.92188 1860.9824 624.51562 1862.4473 623.51953 L 1862.4473 633.97852 L 1878.8828 633.97852 L 1878.8828 567.35742 C 1878.8828 561.0293 1877.916 555.72656 1875.9824 551.44922 C 1874.0488 547.17188 1871.2363 543.68555 1867.5449 540.99023 C 1863.7949 538.23633 1859.3418 536.30273 1854.1855 535.18945 C 1849.0879 534.01758 1843.082 533.43164 1836.168 533.43164 z M 1728.7656 535.80469 L 1728.7656 633.97852 L 1745.2891 633.97852 L 1745.2891 564.28125 C 1749.6836 560.70703 1754.2539 557.80664 1759 555.58008 C 1763.7461 553.29492 1768.668 552.15234 1773.7656 552.15234 C 1776.9297 552.15234 1779.6543 552.29883 1781.9395 552.5918 C 1784.2832 552.82617 1786.6855 553.23633 1789.1465 553.82227 L 1790.0254 553.82227 L 1790.0254 536.85938 C 1787.4473 536.44922 1785.5137 536.18555 1784.2246 536.06836 C 1782.9355 535.89258 1780.8555 535.80469 1777.9844 535.80469 C 1772.7695 535.80469 1767.6426 536.91797 1762.6035 539.14453 C 1757.623 541.3125 1751.8516 545.0332 1745.2891 550.30664 L 1745.2891 535.80469 L 1728.7656 535.80469 z M 1955.5234 548.8125 C 1963.9023 548.8125 1970.1133 551.74219 1974.1562 557.60156 C 1978.1992 563.46094 1980.2207 572.30859 1980.2207 584.14453 C 1980.2207 596.33203 1977.6426 605.53125 1972.4863 611.74219 C 1967.3301 617.95312 1960.1523 621.05859 1950.9531 621.05859 C 1946.6758 621.05859 1942.8379 620.67773 1939.4395 619.91602 C 1936.0996 619.1543 1932.0859 617.71875 1927.3984 615.60938 L 1927.3984 559.97461 C 1931.793 556.63477 1936.3926 553.93945 1941.1973 551.88867 C 1946.002 549.83789 1950.7773 548.8125 1955.5234 548.8125 z M 2067.6719 548.8125 C 2076.0508 548.8125 2082.2617 551.74219 2086.3047 557.60156 C 2090.3477 563.46094 2092.3691 572.30859 2092.3691 584.14453 C 2092.3691 596.33203 2089.791 605.53125 2084.6348 611.74219 C 2079.4785 617.95312 2072.3008 621.05859 2063.1016 621.05859 C 2058.8242 621.05859 2054.9863 620.67773 2051.5879 619.91602 C 2048.248 619.1543 2044.2344 617.71875 2039.5469 615.60938 L 2039.5469 559.97461 C 2043.9414 556.63477 2048.541 553.93945 2053.3457 551.88867 C 2058.1504 549.83789 2062.9258 548.8125 2067.6719 548.8125 z M 1342.8379 582.47461 L 1342.8379 609.80859 C 1338.7363 612.97266 1334.2832 615.69727 1329.4785 617.98242 C 1324.6738 620.20898 1319.3711 621.32227 1313.5703 621.32227 C 1306.5977 621.32227 1301.4121 619.91602 1298.0137 617.10352 C 1294.6152 614.23242 1292.916 609.98438 1292.916 604.35938 C 1292.916 599.37891 1294.3809 595.48242 1297.3105 592.66992 C 1300.2402 589.79883 1304.0781 587.68945 1308.8242 586.3418 C 1312.8086 585.22852 1318.1992 584.37891 1324.9961 583.79297 C 1331.8516 583.20703 1337.7988 582.76758 1342.8379 582.47461 z M 1862.4473 582.47461 L 1862.4473 609.80859 C 1858.3457 612.97266 1853.8926 615.69727 1849.0879 617.98242 C 1844.2832 620.20898 1838.9805 621.32227 1833.1797 621.32227 C 1826.207 621.32227 1821.0215 619.91602 1817.623 617.10352 C 1814.2246 614.23242 1812.5254 609.98438 1812.5254 604.35938 C 1812.5254 599.37891 1813.9902 595.48242 1816.9199 592.66992 C 1819.8496 589.79883 1823.6875 587.68945 1828.4336 586.3418 C 1832.418 585.22852 1837.8086 584.37891 1844.6055 583.79297 C 1851.4609 583.20703 1857.4082 582.76758 1862.4473 582.47461 z "
       id="rect3346" />
    <flowRoot
       xml:space="preserve"
       id="flowRoot4992"
       style="fill:black;stroke:none;stroke-opacity:1;stroke-width:1px;stroke-linejoin:miter;stroke-linecap:butt;fill-opacity:1;font-family:sans-serif;font-style:normal;font-weight:normal;font-size:180px;line-height:125%;letter-spacing:0px;word-spacing:0px;"><flowRegion
         id="flowRegion4994"><rect
           id="rect4996"
           width="1287.174"
           height="532.3913"
           x="979.42029"
           y="319.42029"
           style="font-size:180px;" /></flowRegion><flowPara
         id="flowPara4998"></flowPara></flowRoot>  </g>
</svg>
